<mxfile host="app.diagrams.net" modified="2023-08-29T23:00:12.210Z" agent="Mozilla/5.0 (X11; Linux x86_64) AppleWebKit/537.36 (KHTML, like Gecko) Chrome/116.0.0.0 Safari/537.36" version="21.6.9" etag="lZkma-W5RbiLc6gs8WQe" type="github">
  <diagram name="Page-1" id="1Yo3Lv8PArLlSCxRLg55">
    <mxGraphModel>
      <root>
        <mxCell id="0" />
        <mxCell id="1" parent="0" />
      </root>
    </mxGraphModel>
  </diagram>
</mxfile>
